<svg width="28" height="23" viewBox="0 0 28 23" fill="none" xmlns="http://www.w3.org/2000/svg">
<g clip-path="url(#clip0_555_32381)">
<path fill-rule="evenodd" clip-rule="evenodd" d="M12.0952 15.9255C11.0252 15.0804 5.00154 14.704 0.0356445 14.8978C1.45316 19.4382 5.80234 22.7444 10.9477 22.7444C17.2437 22.7444 22.3476 17.7955 22.3476 11.6899C22.3476 5.58436 17.2437 0.635498 10.9477 0.635498C10.7253 0.635498 10.5044 0.642206 10.285 0.654131C10.2658 1.09908 10.2497 1.55372 10.2382 2.01805C10.0764 8.52833 12.0952 15.9255 12.0952 15.9255Z" fill="#FF4B45"/>
<path fill-rule="evenodd" clip-rule="evenodd" d="M11.6342 0.000534058C10.7835 0.000534058 9.95743 0.101896 9.16736 0.291205C9.75186 3.00637 10.2098 4.56481 10.2098 4.56481C10.2098 4.56481 8.64577 3.11593 6.35535 1.41886C3.36385 3.16363 1.36185 6.34536 1.36185 9.98247C1.36185 15.4948 5.96109 19.9637 11.6342 19.9637C17.3073 19.9637 21.9066 15.4948 21.9066 9.98247C21.9066 4.47016 17.3073 0.000534058 11.6342 0.000534058Z" fill="#FF0004"/>
<path fill-rule="evenodd" clip-rule="evenodd" d="M14.0035 12.2529C13.8631 10.921 9.8867 6.52366 6.24091 3.25473C3.93745 7.4389 4.60018 12.7604 8.23141 16.2894C12.6742 20.6078 19.8776 20.6078 24.3211 16.2894C28.7638 11.9711 28.7638 4.96968 24.3211 0.65136C24.1638 0.498571 24.0035 0.351745 23.8401 0.210136C23.5026 0.511242 23.1605 0.822036 22.8146 1.14326C17.963 5.63748 14.0042 12.2543 14.0042 12.2543" fill="#FF4B45"/>
</g>
<defs>
<clipPath id="clip0_555_32381">
<rect width="27.6175" height="22.7438" fill="white" transform="translate(0.0356445)"/>
</clipPath>
</defs>
</svg>
