<svg width="480" height="404" viewBox="0 0 480 404" fill="none" xmlns="http://www.w3.org/2000/svg">
<path d="M0.21595 374.803L0.219075 276.803L38.6526 254.612C54.7777 245.301 65.5678 250.271 65.5673 264.551C65.567 274.211 60.5959 285.341 52.8363 293.881C62.6567 291.991 68.5973 296.541 68.5969 308.861C68.5964 323.981 56.7144 342.181 41.1955 351.141L0.21595 374.803ZM11.3719 312.222L39.1362 296.192C48.7143 290.661 54.534 281.701 54.5343 272.181C54.5346 263.081 47.7453 261.541 39.1372 266.512L11.3729 282.542L11.3719 312.222ZM11.3705 356.182L40.8322 339.171C50.1678 333.781 56.9575 323.561 56.9578 313.901C56.9581 304.381 50.4113 301.161 40.8332 306.691L11.3716 323.702L11.3705 356.182ZM82.5987 260.877L93.0255 254.856L93.0252 264.516C95.5715 255.906 100.785 248.976 107.696 244.986C117.031 239.596 123.457 243.865 123.457 253.945C123.456 256.605 123.214 259.265 122.729 261.785L112.545 267.666C112.787 265.566 112.908 263.816 112.908 262.556C112.909 256.396 109.393 254.646 103.694 257.936C97.2686 261.646 93.025 269.976 93.0247 278.936L93.0234 321.216L82.5966 327.237L82.5987 260.877ZM133.091 279.182C133.092 265.602 141.943 253.492 154.431 246.281C158.674 243.831 162.796 242.151 166.676 241.311L171.889 239.981L171.889 233.121C171.89 223.461 166.07 221.501 157.462 226.471C149.218 231.231 143.64 239.631 142.185 249.012L132.729 251.392C135.033 237.322 144.005 224.021 157.462 216.251C173.103 207.221 181.953 211.91 181.952 228.29L181.951 269.87L171.888 275.681L171.888 265.181C168.978 274.001 161.34 283.171 152.126 288.491C146.791 291.571 142.305 292.342 138.547 290.872C134.91 289.192 133.091 285.342 133.091 279.182ZM171.889 250.901L171.889 249.501L166.554 250.761C162.553 251.671 158.916 253.071 155.885 254.821C148.489 259.091 143.882 265.391 143.882 272.251C143.882 278.411 148.004 280.231 155.642 275.821C165.22 270.291 171.888 260.561 171.889 250.901ZM208.581 254.494L198.155 260.514L198.157 194.154L208.584 188.134L208.583 198.914C212.584 188.904 219.374 180.504 227.497 175.813C239.743 168.743 247.744 173.223 247.744 188.763L247.742 231.883L237.194 237.973L237.196 198.493C237.196 186.873 232.347 183.653 224.102 188.413C215.373 193.454 208.583 205.354 208.583 218.094L208.581 254.494ZM260.47 191.775C260.471 171.195 271.504 150.404 287.144 141.374C295.995 136.263 303.027 137.383 306.785 143.473L306.786 99.793L317.334 93.7027L317.331 191.703L307.268 197.513L307.269 185.613C303.389 195.833 296.114 205.353 287.385 210.394C271.502 219.564 260.469 212.075 260.47 191.775ZM307.269 164.613C307.27 149.913 298.056 145.993 289.084 151.174C279.748 156.564 270.897 170.774 270.897 185.614C270.896 200.594 279.625 204.094 289.082 198.634C298.054 193.453 307.269 179.453 307.269 164.613ZM333.488 116.015L343.915 109.995L343.912 176.355L333.486 182.375L333.488 116.015ZM332.882 104.045L332.882 89.9053L344.522 83.1849L344.521 97.3249L332.882 104.045ZM370.552 160.973L360.126 166.994L360.128 100.634L370.554 94.6132L370.554 105.393C374.555 95.3831 381.345 86.9828 389.468 82.2926C401.714 75.2222 409.715 79.7019 409.715 95.2419L409.713 138.362L399.165 144.452L399.167 104.972C399.167 93.3523 394.317 90.1324 386.073 94.8927C377.344 99.933 370.554 111.833 370.554 124.573L370.552 160.973ZM425.713 137.804L435.17 127.723C437.473 136.053 443.172 137.523 452.143 132.343C463.298 125.902 468.996 114.072 468.997 99.0922L468.997 91.6722C465.602 101.052 458.57 110.153 448.992 115.683C434.443 124.083 422.44 117.994 422.441 98.1137C422.442 77.3937 434.445 56.3233 449.6 47.5729C458.329 42.5326 464.755 42.6024 468.998 47.7122L468.999 37.7722L479.547 31.6819L479.545 92.1619C479.544 102.662 477.119 112.462 472.391 121.632C467.662 130.802 460.872 137.943 452.143 142.983C438.2 151.033 429.471 149.214 425.713 137.804ZM469.483 70.1122C469.483 56.6722 461.724 51.2125 451.297 57.2328C440.628 63.3931 432.868 77.1134 432.868 92.2334C432.867 105.813 440.626 109.873 451.296 103.713C461.722 97.6925 469.482 83.6922 469.483 70.1122Z" fill="#FF0004"/>
</svg>
