<svg width="452" height="363" viewBox="0 0 452 363" fill="none" xmlns="http://www.w3.org/2000/svg">
<path d="M12.0982 305.376C12.0974 329.736 24.9485 336.595 42.8923 326.235C52.2279 320.844 59.5024 313.844 64.716 305.094C69.9295 296.344 73.4458 286.614 75.2647 276.184L85.0851 275.133C80.7197 299.913 65.8065 324.764 42.8919 337.995C17.4312 352.975 0.0943961 340.866 0.459031 312.096C0.0962043 284.166 19.0106 250.425 42.8951 237.195C53.2006 231.244 61.5662 229.494 67.7493 232.084C74.0536 234.604 78.2968 239.993 80.4789 248.113L70.2944 259.314C67.3851 245.314 57.8074 240.344 42.8947 248.955C25.5572 258.965 12.0989 281.856 12.0982 305.376ZM93.856 273.989C93.8567 254.389 105.618 232.619 122.955 222.608C140.414 212.527 152.174 220.717 152.173 240.317C152.172 259.917 140.169 281.827 122.953 291.768C105.615 301.779 93.8554 293.589 93.856 273.989ZM141.383 246.547C141.383 239.687 139.686 234.927 136.17 232.618C132.775 230.098 128.411 230.378 122.955 233.528C112.285 239.688 104.526 253.969 104.525 267.829C104.525 281.689 112.284 287.008 122.953 280.848C133.744 274.618 141.382 260.547 141.383 246.547ZM175.167 260.22L164.74 266.24L164.743 199.88L175.169 193.86L175.169 204.64C179.17 194.63 185.96 186.229 194.083 181.539C206.328 174.469 214.33 178.949 214.33 194.489L214.328 237.609L203.78 243.699L203.781 204.219C203.782 192.599 198.932 189.379 190.688 194.139C181.959 199.18 175.169 211.08 175.168 223.82L175.167 260.22ZM235.094 205.879L235.095 169.479L223.699 176.059L223.699 165.839L235.096 159.259L235.096 138.679L245.644 132.588L245.644 153.168L266.255 141.268L266.254 151.488L245.643 163.388L245.642 200.348C245.642 206.648 249.037 208.328 253.523 205.738C258.372 202.938 261.161 198.248 262.131 190.408L271.83 187.328C270.254 200.138 263.706 210.498 253.886 216.168C241.762 223.169 235.094 219.179 235.094 205.879ZM322.844 150.873L331.937 149.683C328.057 165.363 319.448 178.313 306.233 185.943C289.38 195.674 277.257 189.094 277.257 167.674C277.258 148.634 288.291 127.144 304.659 117.693C312.297 113.283 318.48 112.233 323.209 114.683C327.937 116.993 330.24 122.523 330.24 131.203C330.24 134.143 329.997 136.943 329.512 139.743L287.926 163.754C288.047 178.104 296.049 181.184 306.233 175.303C315.084 170.193 320.54 161.723 322.844 150.873ZM287.927 155.074L319.813 136.663L319.934 134.633C319.935 125.113 313.267 123.363 304.537 128.403C295.687 133.514 289.018 143.944 287.927 155.074ZM354.543 156.65L344.116 162.67L344.118 96.3099L354.545 90.2896L354.545 101.07C358.546 91.0595 365.335 82.6593 373.459 77.969C385.704 70.8986 393.706 75.3784 393.705 90.9184L393.704 134.038L383.156 140.129L383.157 100.649C383.157 89.0287 378.308 85.8089 370.064 90.5691C361.334 95.6094 354.544 107.51 354.544 120.25L354.543 156.65ZM414.47 102.309L414.471 65.9086L403.074 72.4889L403.075 62.2689L414.471 55.6886L414.472 35.1086L425.02 29.0182L425.019 49.5982L445.63 37.6976L445.63 47.9176L425.019 59.8182L425.018 96.7782C425.018 103.078 428.412 104.758 432.898 102.168C437.748 99.3678 440.536 94.6777 441.507 86.8377L451.206 83.7574C449.629 96.5674 443.082 106.928 433.262 112.598C421.137 119.598 414.469 115.609 414.47 102.309Z" fill="#FF0004"/>
</svg>
