<svg width="720" height="544" viewBox="0 0 720 544" fill="none" xmlns="http://www.w3.org/2000/svg">
<path d="M0.21595 514.049L0.219075 416.049L31.7418 397.848C58.6574 382.307 73.6907 394.067 73.6898 423.047C73.6889 451.047 58.2905 480.517 31.7387 495.848L0.21595 514.049ZM11.3729 421.368L11.3705 495.849L31.7391 484.088C51.5014 472.677 62.5349 450.767 62.5355 429.487C62.5363 406.527 51.5038 398.197 31.7414 409.608L11.3729 421.368ZM87.0979 397.525L97.5247 391.505L97.5225 457.865L87.0958 463.885L87.0979 397.525ZM86.4921 385.555L86.4925 371.415L98.1317 364.695L98.1313 378.835L86.4921 385.555ZM113.493 457.323L122.95 447.243C125.253 455.573 130.951 457.043 139.923 451.863C151.077 445.422 156.776 433.592 156.777 418.612L156.777 411.192C153.382 420.572 146.35 429.672 136.772 435.203C122.223 443.603 110.22 437.513 110.221 417.633C110.221 396.913 122.225 375.843 137.38 367.093C146.109 362.052 152.535 362.122 156.778 367.232L156.779 357.292L167.327 351.202L167.325 411.682C167.324 422.182 164.899 431.982 160.171 441.152C155.442 450.322 148.652 457.462 139.923 462.503C125.98 470.553 117.251 468.733 113.493 457.323ZM157.262 389.632C157.263 376.192 149.504 370.732 139.077 376.753C128.408 382.913 120.648 396.633 120.648 411.753C120.647 425.333 128.406 429.393 139.076 423.233C149.502 417.212 157.262 403.212 157.262 389.632ZM183.594 341.809L194.02 335.789L194.018 402.149L183.592 408.169L183.594 341.809ZM182.988 329.839L182.988 315.699L194.627 308.979L194.627 323.119L182.988 329.839ZM216.294 369.547L216.295 333.147L204.899 339.728L204.899 329.508L216.296 322.927L216.296 302.347L226.844 296.257L226.844 316.837L247.455 304.936L247.454 315.156L226.843 327.057L226.842 364.017C226.842 370.317 230.237 371.997 234.723 369.407C239.572 366.606 242.361 361.916 243.331 354.076L253.03 350.996C251.454 363.806 244.906 374.166 235.086 379.837C222.962 386.837 216.294 382.847 216.294 369.547ZM261.91 344.049C261.911 330.469 270.762 318.358 283.249 311.148C287.493 308.698 291.615 307.018 295.495 306.178L300.708 304.848L300.708 297.988C300.709 288.328 294.889 286.368 286.281 291.338C278.037 296.098 272.459 304.498 271.004 313.878L261.547 316.259C263.851 302.189 272.824 288.888 286.281 281.118C301.921 272.087 310.772 276.777 310.771 293.157L310.77 334.737L300.707 340.548L300.707 330.048C297.797 338.868 290.159 348.038 280.945 353.358C275.61 356.438 271.124 357.208 267.366 355.739C263.729 354.059 261.91 350.209 261.91 344.049ZM300.708 315.768L300.708 314.368L295.373 315.628C291.372 316.538 287.735 317.938 284.704 319.688C277.308 323.958 272.701 330.258 272.701 337.118C272.701 343.278 276.823 345.098 284.461 340.688C294.039 335.158 300.707 325.428 300.708 315.768ZM326.974 325.381L326.977 227.381L337.404 221.361L337.4 319.361L326.974 325.381ZM379.817 262.111C379.818 241.531 390.851 220.74 406.491 211.71C415.342 206.599 422.374 207.719 426.132 213.809L426.133 170.129L436.681 164.039L436.678 262.039L426.615 267.849L426.615 255.949C422.735 266.169 415.461 275.689 406.731 280.73C390.849 289.9 379.816 282.411 379.817 262.111ZM426.616 234.949C426.617 220.249 417.403 216.329 408.431 221.51C399.095 226.9 390.244 241.11 390.244 255.95C390.243 270.93 398.972 274.43 408.429 268.97C417.401 263.789 426.616 249.789 426.616 234.949ZM494.904 204.34L503.997 203.15C500.117 218.83 491.509 231.78 478.293 239.41C461.441 249.141 449.317 242.561 449.318 221.141C449.318 202.101 460.352 180.611 476.719 171.161C484.357 166.75 490.541 165.7 495.269 168.15C499.997 170.46 502.301 175.99 502.3 184.67C502.3 187.61 502.058 190.41 501.573 193.21L459.987 217.221C460.108 231.571 468.109 234.651 478.294 228.77C487.144 223.66 492.6 215.19 494.904 204.34ZM459.987 208.541L491.874 190.13L491.995 188.1C491.995 178.58 485.327 176.83 476.598 181.871C467.747 186.981 461.079 197.411 459.987 208.541ZM512.055 201.157L520.663 191.007C523.936 198.497 529.028 199.477 537.758 194.436C545.396 190.026 550.124 183.376 550.125 177.636C550.125 171.336 546.609 169.866 534.97 174.766C521.755 180.157 515.208 177.637 515.208 167.137C515.208 161.817 517.148 156.357 521.028 150.757C525.029 144.947 530 140.397 535.941 136.966C546.731 130.736 553.157 132.346 556.673 139.696L548.549 149.566C546.61 143.966 542.124 143.196 535.941 146.766C529.636 150.407 524.786 156.567 524.786 161.747C524.786 167.487 528.908 167.627 540.183 162.936C553.641 157.266 560.309 159.996 560.309 171.056C560.309 183.376 550.245 197.866 537.272 205.356C524.3 212.847 515.449 210.537 512.055 201.157ZM573.366 116.758L583.792 110.737L583.79 177.097L573.364 183.118L573.366 116.758ZM572.76 104.788L572.76 90.6476L584.399 83.9272L584.399 98.0672L572.76 104.788ZM599.761 176.556L609.218 166.476C611.521 174.806 617.219 176.275 626.191 171.095C637.345 164.655 643.044 152.825 643.044 137.845L643.045 130.425C639.65 139.805 632.617 148.905 623.039 154.435C608.49 162.836 596.488 156.746 596.489 136.866C596.489 116.146 608.493 95.0756 623.648 86.3251C632.377 81.2848 638.803 81.3546 643.046 86.4645L643.046 76.5245L653.594 70.4342L653.592 130.914C653.592 141.414 651.167 151.214 646.438 160.384C641.71 169.555 634.92 176.695 626.191 181.735C612.248 189.785 603.519 187.966 599.761 176.556ZM643.53 108.864C643.531 95.4245 635.771 89.9647 625.345 95.9851C614.675 102.145 606.916 115.866 606.915 130.986C606.915 144.566 614.674 148.625 625.343 142.465C635.77 136.445 643.53 122.444 643.53 108.864ZM680.286 121.381L669.859 127.402L669.861 61.0416L680.288 55.0213L680.288 65.8013C684.289 55.7911 691.079 47.3909 699.202 42.7007C711.447 35.6303 719.449 40.11 719.448 55.65L719.447 98.77L708.899 104.86L708.9 65.3804C708.901 53.7604 704.051 50.5405 695.807 55.3008C687.077 60.3411 680.288 72.2413 680.287 84.9813L680.286 121.381Z" fill="#FF0004"/>
</svg>
