<svg width="971" height="629" viewBox="0 0 971 629" fill="none" xmlns="http://www.w3.org/2000/svg">
<path d="M931.294 90.5744L920.867 96.5947L920.869 30.2347L931.296 24.2144L931.296 34.9944C935.297 24.9842 942.086 16.584 950.21 11.8938C962.455 4.82339 970.457 9.30313 970.456 24.8431L970.455 67.9631L959.907 74.0535L959.908 34.5735C959.908 22.9535 955.059 19.7336 946.814 24.4939C938.085 29.5342 931.295 41.4344 931.295 54.1744L931.294 90.5744Z" fill="#FF0004"/>
<path d="M850.768 145.749L860.225 135.669C862.528 143.999 868.227 145.468 877.198 140.288C888.353 133.848 894.051 122.018 894.052 107.038L894.052 99.6176C890.657 108.998 883.625 118.098 874.047 123.628C859.498 132.029 847.495 125.939 847.496 106.059C847.497 85.3391 859.5 64.2687 874.655 55.5182C883.384 50.478 889.81 50.5478 894.053 55.6576L894.054 45.7176L904.602 39.6273L904.6 100.107C904.599 110.607 902.174 120.407 897.446 129.578C892.717 138.748 885.927 145.888 877.198 150.928C863.255 158.979 854.526 157.159 850.768 145.749ZM894.538 78.0576C894.538 64.6176 886.779 59.1578 876.352 65.1782C865.683 71.3385 857.923 85.0588 857.923 100.179C857.922 113.759 865.681 117.819 876.351 111.658C886.777 105.638 894.537 91.6376 894.538 78.0576Z" fill="#FF0004"/>
<path d="M824.373 85.9507L834.8 79.9304L834.798 146.29L824.371 152.311L824.373 85.9507ZM823.767 73.9807L823.768 59.8407L835.407 53.1203L835.406 67.2603L823.767 73.9807Z" fill="#FF0004"/>
<path d="M763.062 170.35L771.67 160.2C774.943 167.69 780.035 168.67 788.765 163.63C796.403 159.219 801.132 152.569 801.132 146.829C801.132 140.529 797.616 139.059 785.977 143.96C772.762 149.35 766.215 146.83 766.215 136.33C766.215 131.01 768.155 125.55 772.035 119.95C776.036 114.14 781.007 109.59 786.948 106.16C797.739 99.9292 804.164 101.539 807.68 108.889L799.556 118.759C797.617 113.159 793.131 112.389 786.948 115.96C780.643 119.6 775.793 125.76 775.793 130.94C775.793 136.68 779.915 136.82 791.191 132.129C804.648 126.459 811.316 129.189 811.316 140.249C811.316 152.569 801.252 167.059 788.279 174.55C775.307 182.04 766.456 179.73 763.062 170.35Z" fill="#FF0004"/>
<path d="M745.912 173.533L755.005 172.343C751.124 188.023 742.516 200.973 729.301 208.604C712.448 218.334 700.324 211.755 700.325 190.335C700.326 171.295 711.359 149.804 727.727 140.354C735.365 135.943 741.548 134.893 746.276 137.343C751.005 139.653 753.308 145.183 753.308 153.863C753.308 156.803 753.065 159.603 752.58 162.403L710.994 186.414C711.115 200.764 719.117 203.844 729.301 197.964C738.152 192.853 743.608 184.383 745.912 173.533ZM710.995 177.734L742.881 159.323L743.002 157.293C743.003 147.773 736.335 146.023 727.605 151.064C718.755 156.174 712.086 166.604 710.995 177.734Z" fill="#FF0004"/>
<path d="M630.824 231.304C630.825 210.724 641.858 189.933 657.498 180.903C666.349 175.793 673.381 176.912 677.139 183.002L677.14 139.322L687.688 133.232L687.685 231.232L677.622 237.042L677.623 225.142C673.743 235.362 666.468 244.883 657.739 249.923C641.856 259.093 630.823 251.604 630.824 231.304ZM677.623 204.142C677.624 189.442 668.41 185.523 659.438 190.703C650.102 196.093 641.251 210.303 641.251 225.143C641.25 240.123 649.979 243.623 659.436 238.163C668.408 232.983 677.623 218.982 677.623 204.142Z" fill="#FF0004"/>
<path d="M583.349 267.396L592.442 266.205C588.562 281.885 579.953 294.836 566.738 302.466C549.886 312.197 537.762 305.617 537.763 284.197C537.763 265.157 548.797 243.667 565.164 234.216C572.802 229.806 578.986 228.756 583.714 231.206C588.442 233.515 590.746 239.045 590.745 247.725C590.745 250.665 590.503 253.465 590.017 256.265L548.432 280.277C548.553 294.627 556.554 297.707 566.739 291.826C575.589 286.716 581.045 278.246 583.349 267.396ZM548.432 271.597L580.319 253.186L580.44 251.156C580.44 241.636 573.772 239.886 565.043 244.926C556.192 250.037 549.524 260.467 548.432 271.597Z" fill="#FF0004"/>
<path d="M501.049 329.755C512.203 323.314 517.781 312.674 520.085 298.884L529.42 297.554C526.146 316.244 515.719 331.924 501.291 340.255C483.226 350.685 471.103 343.686 471.103 322.686C471.104 302.806 484.32 280.895 499.96 271.865C513.903 263.814 523.844 266.894 526.632 280.404L517.054 289.294C515.236 279.844 509.174 277.184 499.838 282.575C490.988 287.685 481.288 301.545 481.288 316.805C481.287 331.645 490.865 335.635 501.049 329.755Z" fill="#FF0004"/>
<path d="M419.215 386.245L408.788 392.265L408.79 325.905L419.217 319.885L419.216 330.665C423.218 320.655 430.007 312.255 438.13 307.564C450.376 300.494 458.377 304.974 458.377 320.514L458.376 363.634L447.828 369.724L447.829 330.244C447.829 318.624 442.98 315.404 434.735 320.165C426.006 325.205 419.216 337.105 419.216 349.845L419.215 386.245Z" fill="#FF0004"/>
<path d="M387.516 380.468L396.609 379.278C392.729 394.958 384.12 407.909 370.905 415.539C354.053 425.269 341.929 418.69 341.93 397.27C341.93 378.23 352.964 356.74 369.331 347.289C376.969 342.879 383.153 341.829 387.881 344.278C392.609 346.588 394.912 352.118 394.912 360.798C394.912 363.738 394.67 366.538 394.185 369.338L352.599 393.35C352.72 407.7 360.721 410.779 370.905 404.899C379.756 399.789 385.212 391.318 387.516 380.468ZM352.599 384.67L384.485 366.259L384.607 364.229C384.607 354.709 377.939 352.959 369.21 357.999C360.359 363.109 353.691 373.539 352.599 384.67Z" fill="#FF0004"/>
<path d="M318.807 377.861L329.233 371.841L329.231 438.201L318.804 444.221L318.807 377.861ZM318.201 365.891L318.201 351.751L329.84 345.031L329.84 359.171L318.201 365.891Z" fill="#FF0004"/>
<path d="M265.408 408.693L275.835 402.673L275.835 412.333C278.381 403.723 283.594 396.793 290.505 392.802C299.841 387.412 306.266 391.682 306.266 401.762C306.266 404.422 306.023 407.082 305.538 409.602L295.354 415.482C295.597 413.382 295.718 411.632 295.718 410.372C295.718 404.212 292.202 402.462 286.504 405.753C280.078 409.463 275.834 417.793 275.834 426.753L275.833 469.033L265.406 475.053L265.408 408.693Z" fill="#FF0004"/>
<path d="M244.133 463.256L253.226 462.066C249.346 477.746 240.738 490.696 227.522 498.327C210.67 508.057 198.546 501.478 198.547 480.058C198.547 461.018 209.581 439.527 225.948 430.077C233.587 425.666 239.77 424.616 244.498 427.066C249.226 429.376 251.53 434.906 251.529 443.586C251.529 446.526 251.287 449.326 250.802 452.126L209.216 476.137C209.337 490.487 217.338 493.567 227.523 487.687C236.373 482.576 241.829 474.106 244.133 463.256ZM209.216 467.457L241.103 449.046L241.224 447.016C241.224 437.496 234.556 435.746 225.827 440.787C216.976 445.897 210.308 456.327 209.216 467.457Z" fill="#FF0004"/>
<path d="M132.563 485.397L142.505 479.656L142.505 492.116C146.264 481.966 154.508 471.326 163.116 466.356C178.635 457.395 189.304 465.235 189.303 485.815C189.303 506.395 178.027 526.905 162.387 535.936C154.142 540.696 146.868 540.556 142.988 535.376L142.987 573.456L132.56 579.477L132.563 485.397ZM160.69 526.136C170.146 520.676 178.876 507.375 178.877 491.975C178.877 476.715 170.148 473.216 160.691 478.676C151.719 483.856 142.505 498.276 142.504 512.976C142.504 527.676 151.718 531.316 160.69 526.136Z" fill="#FF0004"/>
<path d="M120.345 492.451L101.916 534.312L122.889 557.341L110.886 564.272L96.0958 547.192L81.3035 581.352L69.3006 588.283L90.3977 541.102L71.7276 520.523L83.9729 513.452L96.0964 528.012L108.1 499.522L120.345 492.451Z" fill="#FF0004"/>
<path d="M0.21875 530.172L59.9907 495.66L59.9903 507.84L11.3726 535.912L11.3716 564.892L56.3522 538.92L56.3518 551.1L11.3713 577.072L11.3702 609.552L61.2004 580.78L61.2 592.96L0.215625 628.172L0.21875 530.172Z" fill="#FF0004"/>
</svg>
