<svg width="971" height="518" viewBox="0 0 971 518" fill="none" xmlns="http://www.w3.org/2000/svg">
<path d="M0.219075 561.172L59.9911 526.66L59.9907 538.84L11.3729 566.912L11.372 595.892L56.3525 569.92L56.3521 582.1L11.3716 608.072L11.3705 640.552L61.2007 611.78L61.2003 623.96L0.21595 659.172L0.219075 561.172ZM120.345 523.451L101.916 565.312L122.889 588.341L110.887 595.271L96.0959 578.192L81.3037 612.352L69.3008 619.283L90.3979 572.102L71.7277 551.523L83.9731 544.452L96.0965 559.012L108.1 530.522L120.345 523.451ZM132.563 516.397L142.505 510.656L142.505 523.116C146.264 512.966 154.508 502.326 163.116 497.356C178.635 488.395 189.304 496.235 189.303 516.815C189.303 537.395 178.027 557.905 162.387 566.936C154.142 571.696 146.868 571.556 142.988 566.376L142.987 604.456L132.56 610.477L132.563 516.397ZM160.69 557.136C170.146 551.675 178.876 538.375 178.877 522.975C178.877 507.715 170.148 504.215 160.691 509.676C151.719 514.856 142.505 529.276 142.504 543.976C142.504 558.676 151.718 562.316 160.69 557.136ZM244.133 494.256L253.226 493.066C249.346 508.746 240.738 521.696 227.523 529.327C210.67 539.057 198.546 532.478 198.547 511.058C198.548 492.018 209.581 470.527 225.949 461.077C233.587 456.666 239.77 455.616 244.498 458.066C249.227 460.376 251.53 465.906 251.53 474.586C251.53 477.526 251.287 480.326 250.802 483.126L209.216 507.137C209.337 521.487 217.339 524.567 227.523 518.687C236.374 513.576 241.83 505.106 244.133 494.256ZM209.216 498.457L241.103 480.046L241.224 478.016C241.225 468.496 234.556 466.746 225.827 471.787C216.976 476.897 210.308 487.327 209.216 498.457ZM265.408 439.693L275.835 433.673L275.834 443.333C278.381 434.723 283.594 427.793 290.505 423.802C299.84 418.412 306.266 422.682 306.266 432.762C306.266 435.422 306.023 438.082 305.538 440.602L295.354 446.482C295.596 444.382 295.718 442.632 295.718 441.372C295.718 435.212 292.202 433.462 286.504 436.753C280.078 440.463 275.834 448.793 275.834 457.753L275.833 500.033L265.406 506.053L265.408 439.693ZM318.806 408.861L329.233 402.841L329.231 469.201L318.804 475.221L318.806 408.861ZM318.2 396.891L318.201 382.751L329.84 376.031L329.84 390.171L318.2 396.891ZM387.516 411.468L396.609 410.278C392.728 425.958 384.12 438.908 370.905 446.539C354.052 456.269 341.928 449.69 341.929 428.27C341.93 409.23 352.963 387.739 369.331 378.289C376.969 373.879 383.152 372.828 387.88 375.278C392.609 377.588 394.912 383.118 394.912 391.798C394.912 394.738 394.669 397.538 394.184 400.338L352.598 424.349C352.719 438.699 360.721 441.779 370.905 435.899C379.756 430.789 385.212 422.318 387.516 411.468ZM352.599 415.669L384.485 397.258L384.606 395.228C384.607 385.708 377.939 383.959 369.209 388.999C360.359 394.109 353.69 404.539 352.599 415.669ZM419.215 417.245L408.788 423.265L408.79 356.905L419.217 350.885L419.216 361.665C423.218 351.655 430.007 343.255 438.13 338.564C450.376 331.494 458.377 335.974 458.377 351.514L458.376 394.634L447.828 400.724L447.829 361.244C447.829 349.624 442.98 346.404 434.735 351.165C426.006 356.205 419.216 368.105 419.216 380.845L419.215 417.245ZM501.049 360.755C512.203 354.314 517.781 343.674 520.085 329.884L529.42 328.554C526.146 347.244 515.719 362.924 501.291 371.255C483.226 381.685 471.103 374.686 471.103 353.686C471.104 333.806 484.32 311.895 499.96 302.865C513.902 294.814 523.844 297.894 526.632 311.404L517.054 320.294C515.236 310.844 509.174 308.184 499.838 313.575C490.988 318.685 481.288 332.545 481.287 347.805C481.287 362.645 490.865 366.635 501.049 360.755ZM583.349 298.396L592.442 297.205C588.562 312.886 579.953 325.836 566.738 333.466C549.885 343.197 537.762 336.617 537.762 315.197C537.763 296.157 548.796 274.667 565.164 265.216C572.802 260.806 578.985 259.756 583.714 262.206C588.442 264.516 590.745 270.045 590.745 278.725C590.745 281.665 590.502 284.465 590.017 287.265L548.431 311.277C548.552 325.627 556.554 328.707 566.738 322.826C575.589 317.716 581.045 309.246 583.349 298.396ZM548.432 302.597L580.318 284.186L580.439 282.156C580.44 272.636 573.772 270.886 565.042 275.926C556.192 281.037 549.523 291.467 548.432 302.597ZM630.824 262.304C630.825 241.724 641.859 220.933 657.499 211.903C666.349 206.793 673.381 207.912 677.139 214.002L677.141 170.322L687.689 164.232L687.686 262.232L677.623 268.042L677.623 256.142C673.743 266.362 666.468 275.883 657.739 280.923C641.856 290.093 630.824 282.604 630.824 262.304ZM677.624 235.142C677.624 220.442 668.41 216.523 659.438 221.703C650.103 227.093 641.252 241.303 641.251 256.143C641.251 271.123 649.98 274.623 659.437 269.163C668.409 263.983 677.623 249.982 677.624 235.142ZM745.912 204.533L755.005 203.343C751.124 219.023 742.516 231.973 729.301 239.604C712.448 249.334 700.324 242.755 700.325 221.335C700.326 202.295 711.359 180.804 727.727 171.354C735.365 166.943 741.548 165.893 746.276 168.343C751.005 170.653 753.308 176.183 753.308 184.863C753.308 187.803 753.065 190.603 752.58 193.403L710.994 217.414C711.115 231.764 719.117 234.844 729.301 228.964C738.152 223.853 743.608 215.383 745.912 204.533ZM710.995 208.734L742.881 190.323L743.002 188.293C743.003 178.773 736.335 177.023 727.605 182.064C718.755 187.174 712.086 197.604 710.995 208.734ZM763.062 201.35L771.671 191.2C774.944 198.69 780.036 199.67 788.765 194.629C796.403 190.219 801.132 183.569 801.132 177.829C801.132 171.529 797.616 170.059 785.977 174.96C772.762 180.35 766.215 177.83 766.216 167.33C766.216 162.01 768.156 156.55 772.036 150.95C776.037 145.14 781.008 140.59 786.948 137.16C797.739 130.929 804.164 132.539 807.68 139.889L799.557 149.759C797.617 144.159 793.131 143.389 786.948 146.96C780.644 150.6 775.794 156.76 775.794 161.94C775.793 167.68 779.916 167.82 791.191 163.129C804.649 157.459 811.317 160.189 811.316 171.249C811.316 183.569 801.253 198.059 788.28 205.549C775.307 213.04 766.457 210.73 763.062 201.35ZM824.373 116.951L834.8 110.93L834.798 177.29L824.371 183.311L824.373 116.951ZM823.767 104.981L823.768 90.8407L835.407 84.1204L835.406 98.2604L823.767 104.981ZM850.768 176.749L860.225 166.669C862.528 174.999 868.227 176.468 877.198 171.288C888.353 164.848 894.051 153.018 894.052 138.038L894.052 130.618C890.657 139.998 883.625 149.098 874.047 154.628C859.498 163.029 847.495 156.939 847.496 137.059C847.497 116.339 859.5 95.2688 874.655 86.5183C883.385 81.478 889.81 81.5478 894.053 86.6576L894.054 76.7176L904.602 70.6273L904.6 131.107C904.599 141.607 902.174 151.407 897.446 160.578C892.717 169.748 885.927 176.888 877.198 181.928C863.255 189.979 854.526 188.159 850.768 176.749ZM894.538 109.058C894.538 95.6176 886.779 90.1579 876.352 96.1782C865.683 102.339 857.923 116.059 857.923 131.179C857.922 144.759 865.681 148.819 876.351 142.658C886.777 136.638 894.537 122.638 894.538 109.058ZM931.294 121.574L920.867 127.595L920.869 61.2348L931.296 55.2144L931.295 65.9944C935.296 55.9843 942.086 47.5841 950.209 42.8938C962.455 35.8234 970.456 40.3032 970.456 55.8432L970.454 98.9632L959.906 105.054L959.908 65.5735C959.908 53.9535 955.059 50.7337 946.814 55.4939C938.085 60.5342 931.295 72.4344 931.295 85.1744L931.294 121.574Z" fill="#FF0004"/>
</svg>
