<svg width="819" height="542" viewBox="0 0 819 542" fill="none" xmlns="http://www.w3.org/2000/svg">
<path d="M779.742 91.3254L769.315 97.3457L769.317 30.9857L779.744 24.9654L779.744 35.7454C783.745 25.7352 790.535 17.335 798.658 12.6448C810.903 5.57436 818.905 10.0541 818.904 25.5941L818.903 68.7141L808.355 74.8044L808.356 35.3244C808.357 23.7044 803.507 20.4846 795.263 25.2449C786.533 30.2851 779.744 42.1854 779.743 54.9254L779.742 91.3254Z" fill="#FF0004"/>
<path d="M699.216 146.5L708.673 136.42C710.977 144.75 716.675 146.219 725.647 141.039C736.801 134.599 742.5 122.769 742.5 107.789L742.5 100.369C739.105 109.749 732.073 118.849 722.495 124.379C707.946 132.78 695.944 126.69 695.944 106.81C695.945 86.0901 707.948 65.0197 723.103 56.2692C731.833 51.2289 738.258 51.2987 742.502 56.4086L742.502 46.4686L753.05 40.3782L753.048 100.858C753.048 111.358 750.623 121.158 745.894 130.329C741.165 139.499 734.376 146.639 725.646 151.679C711.704 159.73 702.974 157.91 699.216 146.5ZM742.986 78.8086C742.986 65.3686 735.227 59.9088 724.8 65.9291C714.131 72.0895 706.371 85.8098 706.371 100.93C706.37 114.51 714.13 118.569 724.799 112.409C735.226 106.389 742.985 92.3886 742.986 78.8086Z" fill="#FF0004"/>
<path d="M672.821 86.7017L683.248 80.6813L683.246 147.041L672.819 153.062L672.821 86.7017ZM672.215 74.7317L672.216 60.5917L683.855 53.8713L683.855 68.0113L672.215 74.7317Z" fill="#FF0004"/>
<path d="M611.511 171.101L620.119 160.951C623.393 168.441 628.485 169.421 637.214 164.38C644.852 159.97 649.581 153.32 649.581 147.58C649.581 141.28 646.065 139.81 634.426 144.71C621.211 150.101 614.664 147.581 614.664 137.081C614.665 131.761 616.605 126.301 620.484 120.701C624.485 114.891 629.456 110.341 635.397 106.91C646.188 100.68 652.613 102.29 656.129 109.64L648.006 119.51C646.066 113.91 641.58 113.14 635.397 116.71C629.092 120.351 624.243 126.511 624.242 131.691C624.242 137.431 628.364 137.571 639.64 132.88C653.097 127.21 659.766 129.94 659.765 141C659.765 153.32 649.702 167.81 636.729 175.3C623.756 182.791 614.905 180.481 611.511 171.101Z" fill="#FF0004"/>
<path d="M594.36 174.284L603.453 173.094C599.573 188.774 590.964 201.724 577.749 209.355C560.896 219.085 548.773 212.506 548.773 191.086C548.774 172.046 559.807 150.555 576.175 141.105C583.813 136.694 589.996 135.644 594.725 138.094C599.453 140.404 601.756 145.934 601.756 154.614C601.756 157.554 601.513 160.354 601.028 163.154L559.442 187.165C559.563 201.515 567.565 204.595 577.749 198.715C586.6 193.604 592.056 185.134 594.36 174.284ZM559.443 178.485L591.329 160.074L591.451 158.044C591.451 148.524 584.783 146.774 576.053 151.815C567.203 156.925 560.534 167.355 559.443 178.485Z" fill="#FF0004"/>
<path d="M479.272 232.055C479.273 211.475 490.306 190.684 505.947 181.654C514.797 176.544 521.829 177.663 525.587 183.753L525.589 140.073L536.137 133.983L536.133 231.983L526.07 237.793L526.071 225.893C522.191 236.113 514.916 245.634 506.187 250.674C490.304 259.844 479.272 252.355 479.272 232.055ZM526.071 204.893C526.072 190.193 516.858 186.274 507.886 191.454C498.55 196.844 489.7 211.054 489.699 225.894C489.699 240.874 498.428 244.374 507.885 238.914C516.856 233.734 526.071 219.733 526.071 204.893Z" fill="#FF0004"/>
<path d="M404.787 288.082L404.788 251.682L393.392 258.263L393.392 248.043L404.789 241.462L404.789 220.882L415.337 214.792L415.337 235.372L435.948 223.471L435.947 233.691L415.336 245.592L415.335 282.552C415.335 288.852 418.73 290.532 423.215 287.942C428.065 285.142 430.854 280.451 431.824 272.611L441.523 269.531C439.947 282.341 433.399 292.701 423.579 298.372C411.455 305.372 404.787 301.382 404.787 288.082Z" fill="#FF0004"/>
<path d="M359.798 324.558C370.952 318.118 376.53 307.477 378.834 293.687L388.169 292.357C384.895 311.047 374.468 326.727 360.04 335.058C341.975 345.488 329.852 338.489 329.852 317.489C329.853 297.609 343.069 275.698 358.709 266.668C372.652 258.617 382.593 261.697 385.381 275.207L375.803 284.097C373.985 274.647 367.923 271.988 358.587 277.378C349.737 282.488 340.037 296.349 340.037 311.609C340.036 326.449 349.614 330.438 359.798 324.558Z" fill="#FF0004"/>
<path d="M306.706 298.094L317.254 292.004L317.252 358.364L306.704 364.454L306.704 353.254C302.824 363.194 296.277 371.875 287.912 376.705C275.302 383.985 267.301 379.785 267.301 363.405L267.303 320.845L277.729 314.825L277.728 354.585C277.728 366.205 282.335 369.285 290.7 364.455C299.794 359.204 306.705 346.674 306.705 333.374L306.706 298.094Z" fill="#FF0004"/>
<path d="M194.285 396.605C194.286 376.025 205.319 355.234 220.959 346.204C229.81 341.094 236.842 342.213 240.6 348.303L240.601 304.623L251.149 298.533L251.146 396.533L241.083 402.343L241.084 390.443C237.204 400.663 229.929 410.184 221.2 415.224C205.317 424.394 194.284 416.905 194.285 396.605ZM241.084 369.443C241.085 354.743 231.871 350.824 222.899 356.004C213.563 361.394 204.712 375.604 204.712 390.444C204.711 405.424 213.44 408.924 222.897 403.464C231.869 398.284 241.084 384.283 241.084 369.443Z" fill="#FF0004"/>
<path d="M126.915 435.083C126.916 415.483 138.676 393.713 156.014 383.702C173.473 373.622 185.233 381.812 185.232 401.412C185.231 421.012 173.228 442.922 156.012 452.862C138.674 462.873 126.914 454.683 126.915 435.083ZM174.442 407.642C174.442 400.782 172.745 396.022 169.229 393.712C165.834 391.192 161.469 391.472 156.014 394.622C145.344 400.783 137.585 415.063 137.584 428.923C137.584 442.783 145.343 448.103 156.012 441.942C166.803 435.712 174.441 421.642 174.442 407.642Z" fill="#FF0004"/>
<path d="M78.0996 430.09L88.5263 424.069L88.526 433.729C91.0723 425.119 96.2858 418.189 103.197 414.199C112.532 408.809 118.958 413.078 118.957 423.158C118.957 425.818 118.715 428.478 118.23 430.998L108.045 436.879C108.288 434.779 108.409 433.029 108.409 431.769C108.409 425.609 104.894 423.859 99.1953 427.149C92.7695 430.859 88.5258 439.189 88.5256 448.149L88.5242 490.429L78.0974 496.45L78.0996 430.09Z" fill="#FF0004"/>
<path d="M11.3711 494.658L11.3698 534.978L0.215625 541.418L0.21875 443.418L37.6823 421.787C55.2623 411.636 65.2037 418.776 65.2032 434.736C65.2027 450.276 54.7755 469.596 37.6805 479.467L11.3711 494.658ZM11.3715 482.478L36.7109 467.847C46.774 462.036 53.4424 452.166 53.4428 441.526C53.4431 430.886 46.775 428.716 36.712 434.527L11.3726 449.158L11.3715 482.478Z" fill="#FF0004"/>
</svg>
