<svg width="784" height="522" viewBox="0 0 784 522" fill="none" xmlns="http://www.w3.org/2000/svg">
<path d="M744.658 90.9244L734.231 96.9447L734.233 30.5847L744.66 24.5644L744.66 35.3444C748.661 25.3342 755.451 16.934 763.574 12.2438C775.819 5.17336 783.821 9.6531 783.82 25.1931L783.819 68.3131L773.271 74.4034L773.272 34.9234C773.273 23.3034 768.423 20.0836 760.179 24.8439C751.449 29.8841 744.66 41.7844 744.659 54.5244L744.658 90.9244Z" fill="#FF0004"/>
<path d="M664.132 146.099L673.589 136.019C675.893 144.349 681.591 145.818 690.563 140.638C701.717 134.198 707.416 122.368 707.416 107.388L707.416 99.9676C704.021 109.348 696.989 118.448 687.411 123.978C672.862 132.379 660.86 126.289 660.86 106.409C660.861 85.6891 672.864 64.6187 688.019 55.8682C696.749 50.8279 703.174 50.8977 707.418 56.0076L707.418 46.0676L717.966 39.9772L717.964 100.457C717.964 110.957 715.539 120.757 710.81 129.927C706.081 139.098 699.292 146.238 690.562 151.278C676.62 159.329 667.89 157.509 664.132 146.099ZM707.902 78.4076C707.902 64.9676 700.143 59.5078 689.716 65.5281C679.047 71.6885 671.287 85.4088 671.287 100.529C671.287 114.109 679.046 118.168 689.715 112.008C700.142 105.988 707.901 91.9876 707.902 78.4076Z" fill="#FF0004"/>
<path d="M637.738 86.3007L648.165 80.2803L648.163 146.64L637.736 152.661L637.738 86.3007ZM637.132 74.3307L637.133 60.1907L648.772 53.4703L648.772 67.6103L637.132 74.3307Z" fill="#FF0004"/>
<path d="M576.427 170.7L585.035 160.55C588.309 168.04 593.401 169.02 602.13 163.979C609.768 159.569 614.497 152.919 614.497 147.179C614.497 140.879 610.981 139.409 599.342 144.309C586.127 149.7 579.58 147.18 579.58 136.68C579.581 131.36 581.521 125.9 585.4 120.3C589.401 114.49 594.372 109.94 600.313 106.509C611.104 100.279 617.529 101.889 621.045 109.239L612.922 119.109C610.982 113.509 606.496 112.739 600.313 116.309C594.008 119.95 589.159 126.11 589.158 131.29C589.158 137.03 593.28 137.17 604.556 132.479C618.013 126.809 624.682 129.539 624.681 140.599C624.681 152.919 614.618 167.409 601.645 174.899C588.672 182.39 579.821 180.08 576.427 170.7Z" fill="#FF0004"/>
<path d="M559.276 173.883L568.369 172.693C564.489 188.373 555.88 201.323 542.665 208.953C525.812 218.684 513.689 212.104 513.689 190.684C513.69 171.644 524.723 150.154 541.091 140.704C548.729 136.293 554.912 135.243 559.641 137.693C564.369 140.003 566.672 145.533 566.672 154.213C566.672 157.153 566.429 159.953 565.944 162.753L524.359 186.764C524.479 201.114 532.481 204.194 542.665 198.313C551.516 193.203 556.972 184.733 559.276 173.883ZM524.359 178.084L556.245 159.673L556.367 157.643C556.367 148.123 549.699 146.373 540.969 151.414C532.119 156.524 525.45 166.954 524.359 178.084Z" fill="#FF0004"/>
<path d="M444.189 231.654C444.19 211.074 455.223 190.283 470.864 181.253C479.714 176.142 486.746 177.262 490.504 183.352L490.506 139.672L501.054 133.582L501.05 231.582L490.987 237.392L490.988 225.492C487.108 235.712 479.833 245.232 471.104 250.273C455.221 259.443 444.189 251.954 444.189 231.654ZM490.988 204.492C490.989 189.792 481.775 185.872 472.803 191.053C463.467 196.443 454.617 210.653 454.616 225.493C454.616 240.473 463.345 243.973 472.802 238.513C481.773 233.332 490.988 219.332 490.988 204.492Z" fill="#FF0004"/>
<path d="M396.713 267.746L405.806 266.555C401.926 282.235 393.318 295.186 380.102 302.816C363.25 312.547 351.126 305.967 351.127 284.547C351.127 265.507 362.161 244.017 378.528 234.566C386.167 230.156 392.35 229.106 397.078 231.556C401.806 233.865 404.11 239.395 404.109 248.075C404.109 251.015 403.867 253.815 403.382 256.615L361.796 280.627C361.917 294.977 369.918 298.057 380.103 292.176C388.953 287.066 394.409 278.596 396.713 267.746ZM361.796 271.947L393.683 253.536L393.804 251.506C393.804 241.986 387.136 240.236 378.407 245.276C369.556 250.386 362.888 260.817 361.796 271.947Z" fill="#FF0004"/>
<path d="M314.413 330.105C325.568 323.664 331.145 313.024 333.449 299.234L342.784 297.904C339.51 316.594 329.083 332.274 314.656 340.605C296.591 351.035 284.467 344.035 284.468 323.035C284.468 303.155 297.684 281.245 313.324 272.215C327.267 264.164 337.208 267.244 339.997 280.754L330.418 289.644C328.6 280.194 322.538 277.534 313.203 282.925C304.352 288.035 294.652 301.895 294.652 317.155C294.651 331.995 304.229 335.985 314.413 330.105Z" fill="#FF0004"/>
<path d="M261.345 303.627L271.771 297.607L271.769 363.967L261.343 369.987L261.345 303.627ZM260.739 291.657L260.739 277.517L272.378 270.797L272.378 284.937L260.739 291.657Z" fill="#FF0004"/>
<path d="M203.333 337.123L221.638 381.152L239.826 316.052L250.981 309.611L227.943 389.272L215.212 396.622L192.3 343.493L203.333 337.123Z" fill="#FF0004"/>
<path d="M144.722 370.965L155.148 364.944L155.148 374.604C157.694 365.994 162.908 359.064 169.819 355.074C179.154 349.684 185.58 353.953 185.579 364.033C185.579 366.693 185.337 369.353 184.852 371.873L174.667 377.754C174.91 375.654 175.031 373.904 175.031 372.644C175.032 366.484 171.516 364.734 165.817 368.024C159.392 371.734 155.148 380.064 155.148 389.024L155.146 431.304L144.72 437.325L144.722 370.965Z" fill="#FF0004"/>
<path d="M123.447 425.528L132.54 424.337C128.66 440.018 120.051 452.968 106.836 460.598C89.9833 470.329 77.8596 463.749 77.8602 442.329C77.8608 423.289 88.8943 401.799 105.262 392.348C112.9 387.938 119.083 386.888 123.812 389.338C128.54 391.648 130.843 397.177 130.843 405.857C130.843 408.797 130.6 411.598 130.115 414.398L88.5294 438.409C88.6502 452.759 96.6519 455.839 106.836 449.958C115.687 444.848 121.143 436.378 123.447 425.528ZM88.5297 429.729L120.416 411.318L120.537 409.288C120.538 399.768 113.87 398.018 105.14 403.058C96.2897 408.169 89.6212 418.599 88.5297 429.729Z" fill="#FF0004"/>
<path d="M34.3474 413.834C24.7694 419.364 17.8584 428.675 17.8582 437.075C17.8579 446.735 25.9809 447.084 40.0448 442.184C60.0494 435.113 69.021 438.193 69.0206 453.453C69.02 470.253 55.6831 490.133 37.0119 500.914C29.01 505.534 21.6143 507.424 14.9462 506.655C8.27809 505.885 3.42868 500.985 0.519225 492.025L10.825 478.655C14.2192 492.795 23.4333 496.574 37.1335 488.664C49.3789 481.594 57.5023 470.463 57.5026 460.523C57.5029 451.703 52.0472 449.813 36.1647 456.044C16.5237 463.465 6.70346 459.335 6.70396 443.795C6.70442 429.375 18.2227 410.964 35.3177 401.094C49.3817 392.973 61.0206 394.793 65.5061 406.903L55.0791 419.783C52.291 409.633 45.1379 407.604 34.3474 413.834Z" fill="#FF0004"/>
</svg>
