<svg width="784" height="234" viewBox="0 0 784 234" fill="none" xmlns="http://www.w3.org/2000/svg">
<path d="M34.3467 445.834C24.7687 451.364 17.8577 460.675 17.8575 469.075C17.8572 478.735 25.9802 479.084 40.0441 474.184C60.0487 467.113 69.0203 470.193 69.0198 485.453C69.0193 502.253 55.6824 522.133 37.0112 532.914C29.0093 537.534 21.6136 539.424 14.9455 538.655C8.27738 537.885 3.42797 532.985 0.518517 524.025L10.8243 510.655C14.2185 524.795 23.4326 528.574 37.1328 520.664C49.3782 513.594 57.5016 502.463 57.5019 492.523C57.5022 483.703 52.0465 481.813 36.164 488.044C16.523 495.465 6.70275 491.335 6.70325 475.795C6.70371 461.375 18.222 442.965 35.317 433.094C49.381 424.974 61.0199 426.793 65.5054 438.903L55.0784 451.783C52.2902 441.633 45.1372 439.604 34.3467 445.834ZM123.446 457.528L132.539 456.337C128.659 472.018 120.05 484.968 106.835 492.598C89.9823 502.329 77.8586 495.749 77.8593 474.329C77.8599 455.289 88.8933 433.799 105.261 424.348C112.899 419.938 119.082 418.888 123.811 421.338C128.539 423.648 130.842 429.178 130.842 437.858C130.842 440.798 130.599 443.598 130.114 446.398L88.5284 470.409C88.6492 484.759 96.6509 487.839 106.835 481.958C115.686 476.848 121.142 468.378 123.446 457.528ZM88.5287 461.729L120.415 443.318L120.537 441.288C120.537 431.768 113.869 430.018 105.139 435.058C96.2887 440.169 89.6202 450.599 88.5287 461.729ZM144.72 402.965L155.147 396.944L155.147 406.604C157.693 397.994 162.906 391.064 169.817 387.074C179.153 381.684 185.578 385.954 185.578 396.034C185.578 398.694 185.335 401.354 184.85 403.874L174.666 409.754C174.909 407.654 175.03 405.904 175.03 404.644C175.03 398.484 171.514 396.734 165.816 400.024C159.39 403.734 155.146 412.064 155.146 421.024L155.145 463.304L144.718 469.325L144.72 402.965ZM203.332 369.123L221.638 413.152L239.825 348.052L250.98 341.611L227.942 421.272L215.211 428.622L192.299 375.493L203.332 369.123ZM261.344 335.627L271.771 329.607L271.769 395.967L261.342 401.987L261.344 335.627ZM260.738 323.657L260.739 309.517L272.378 302.797L272.377 316.937L260.738 323.657ZM314.413 362.105C325.567 355.664 331.144 345.024 333.448 331.234L342.784 329.904C339.51 348.594 329.083 364.274 314.655 372.605C296.59 383.035 284.466 376.036 284.467 355.036C284.467 335.156 297.683 313.245 313.323 304.215C327.266 296.164 337.208 299.244 339.996 312.754L330.418 321.644C328.599 312.194 322.537 309.534 313.202 314.925C304.351 320.035 294.652 333.895 294.651 349.155C294.651 363.995 304.228 367.985 314.413 362.105ZM396.712 299.746L405.805 298.555C401.925 314.235 393.317 327.186 380.101 334.816C363.249 344.547 351.125 337.967 351.126 316.547C351.126 297.507 362.16 276.017 378.528 266.566C386.166 262.156 392.349 261.106 397.077 263.556C401.805 265.865 404.109 271.395 404.109 280.075C404.108 283.015 403.866 285.815 403.381 288.615L361.795 312.627C361.916 326.977 369.918 330.056 380.102 324.176C388.952 319.066 394.408 310.596 396.712 299.746ZM361.795 303.947L393.682 285.536L393.803 283.506C393.803 273.986 387.135 272.236 378.406 277.276C369.555 282.386 362.887 292.817 361.795 303.947ZM444.188 263.654C444.189 243.074 455.222 222.283 470.862 213.253C479.713 208.142 486.745 209.262 490.503 215.352L490.504 171.672L501.052 165.582L501.049 263.582L490.986 269.392L490.987 257.492C487.107 267.712 479.832 277.232 471.103 282.273C455.22 291.443 444.187 283.954 444.188 263.654ZM490.987 236.492C490.988 221.792 481.774 217.872 472.802 223.053C463.466 228.443 454.615 242.653 454.615 257.493C454.614 272.473 463.343 275.973 472.8 270.513C481.772 265.332 490.987 251.332 490.987 236.492ZM559.275 205.883L568.368 204.693C564.488 220.373 555.88 233.323 542.664 240.954C525.812 250.684 513.688 244.104 513.689 222.684C513.689 203.644 524.723 182.154 541.09 172.704C548.729 168.293 554.912 167.243 559.64 169.693C564.368 172.003 566.672 177.533 566.671 186.213C566.671 189.153 566.429 191.953 565.944 194.753L524.358 218.764C524.479 233.114 532.48 236.194 542.665 230.314C551.515 225.203 556.971 216.733 559.275 205.883ZM524.358 210.084L556.245 191.673L556.366 189.643C556.366 180.123 549.698 178.373 540.969 183.414C532.118 188.524 525.45 198.954 524.358 210.084ZM576.426 202.7L585.034 192.55C588.307 200.04 593.399 201.02 602.129 195.979C609.767 191.569 614.496 184.919 614.496 179.179C614.496 172.879 610.98 171.409 599.341 176.309C586.126 181.7 579.579 179.18 579.579 168.68C579.579 163.36 581.519 157.9 585.399 152.3C589.4 146.49 594.371 141.94 600.312 138.509C611.102 132.279 617.528 133.889 621.044 141.239L612.92 151.109C610.981 145.509 606.495 144.739 600.312 148.309C594.007 151.95 589.157 158.11 589.157 163.29C589.157 169.03 593.279 169.17 604.555 164.479C618.012 158.809 624.68 161.539 624.68 172.599C624.68 184.919 614.616 199.409 601.643 206.899C588.671 214.39 579.82 212.08 576.426 202.7ZM637.737 118.301L648.163 112.28L648.161 178.64L637.735 184.661L637.737 118.301ZM637.131 106.331L637.131 92.1906L648.771 85.4703L648.77 99.6103L637.131 106.331ZM664.132 178.099L673.589 168.019C675.892 176.349 681.59 177.818 690.562 172.638C701.716 166.198 707.415 154.368 707.415 139.388L707.416 131.968C704.021 141.348 696.988 150.448 687.41 155.978C672.861 164.379 660.859 158.289 660.86 138.409C660.86 117.689 672.864 96.6187 688.019 87.8682C696.748 82.8279 703.174 82.8977 707.417 88.0076L707.417 78.0675L717.965 71.9772L717.963 132.457C717.963 142.957 715.538 152.757 710.809 161.927C706.081 171.098 699.291 178.238 690.562 183.278C676.619 191.329 667.89 189.509 664.132 178.099ZM707.901 110.408C707.902 96.9675 700.143 91.5078 689.716 97.5281C679.047 103.688 671.287 117.409 671.286 132.529C671.286 146.109 679.045 150.168 689.714 144.008C700.141 137.988 707.901 123.988 707.901 110.408ZM744.657 122.924L734.23 128.945L734.232 62.5847L744.659 56.5643L744.659 67.3443C748.66 57.3342 755.45 48.934 763.573 44.2437C775.818 37.1733 783.82 41.6531 783.819 57.1931L783.818 100.313L773.27 106.403L773.271 66.9234C773.272 55.3034 768.422 52.0836 760.178 56.8438C751.448 61.8841 744.659 73.7843 744.658 86.5243L744.657 122.924Z" fill="#FF0004"/>
</svg>
