<svg width="747" height="501" viewBox="0 0 747 501" fill="none" xmlns="http://www.w3.org/2000/svg">
<path d="M706.888 90.9782L696.462 96.9985L696.464 30.6385L706.891 24.6182L706.89 35.3982C710.891 25.3881 717.681 16.9878 725.804 12.2976C738.05 5.2272 746.051 9.70694 746.051 25.2469L746.049 68.3669L735.501 74.4573L735.503 34.9773C735.503 23.3573 730.654 20.1374 722.409 24.8977C713.68 29.938 706.89 41.8382 706.89 54.5782L706.888 90.9782Z" fill="#FF0004"/>
<path d="M626.363 146.153L635.82 136.073C638.123 144.403 643.821 145.872 652.793 140.692C663.947 134.252 669.646 122.422 669.646 107.442L669.647 100.022C666.252 109.402 659.22 118.502 649.641 124.032C635.093 132.433 623.09 126.343 623.091 106.463C623.091 85.743 635.095 64.6727 650.25 55.9222C658.979 50.8819 665.405 50.9517 669.648 56.0615L669.648 46.1215L680.196 40.0312L680.194 100.511C680.194 111.011 677.769 120.811 673.04 129.981C668.312 139.152 661.522 146.292 652.793 151.332C638.85 159.383 630.121 157.563 626.363 146.153ZM670.132 78.4615C670.133 65.0215 662.374 59.5618 651.947 65.5821C641.278 71.7424 633.518 85.4627 633.517 100.583C633.517 114.163 641.276 118.222 651.945 112.062C662.372 106.042 670.132 92.0415 670.132 78.4615Z" fill="#FF0004"/>
<path d="M599.969 86.3546L610.395 80.3343L610.393 146.694L599.967 152.715L599.969 86.3546ZM599.363 74.3846L599.363 60.2446L611.002 53.5243L611.002 67.6643L599.363 74.3846Z" fill="#FF0004"/>
<path d="M538.658 170.754L547.266 160.604C550.539 168.094 555.631 169.073 564.36 164.033C571.999 159.623 576.727 152.973 576.727 147.233C576.728 140.933 573.212 139.463 561.573 144.363C548.357 149.754 541.811 147.234 541.811 136.734C541.811 131.414 543.751 125.954 547.631 120.354C551.632 114.544 556.603 109.993 562.544 106.563C573.334 100.333 579.76 101.943 583.276 109.293L575.152 119.163C573.213 113.563 568.727 112.793 562.543 116.363C556.239 120.003 551.389 126.164 551.389 131.344C551.389 137.084 555.511 137.223 566.786 132.533C580.244 126.863 586.912 129.592 586.912 140.652C586.911 152.972 576.848 167.463 563.875 174.953C550.902 182.444 542.052 180.134 538.658 170.754Z" fill="#FF0004"/>
<path d="M521.506 173.937L530.599 172.747C526.719 188.427 518.111 201.377 504.895 209.007C488.043 218.738 475.919 212.158 475.92 190.738C475.92 171.698 486.954 150.208 503.321 140.757C510.96 136.347 517.143 135.297 521.871 137.747C526.599 140.057 528.903 145.587 528.902 154.267C528.902 157.207 528.66 160.007 528.175 162.807L486.589 186.818C486.71 201.168 494.711 204.248 504.896 198.367C513.746 193.257 519.202 184.787 521.506 173.937ZM486.589 178.138L518.476 159.727L518.597 157.697C518.597 148.177 511.929 146.427 503.2 151.467C494.349 156.578 487.681 167.008 486.589 178.138Z" fill="#FF0004"/>
<path d="M406.42 231.708C406.42 211.128 417.454 190.337 433.094 181.307C441.945 176.196 448.976 177.316 452.735 183.406L452.736 139.726L463.284 133.636L463.281 231.636L453.218 237.446L453.218 225.546C449.338 235.766 442.064 245.286 433.334 250.327C417.452 259.497 406.419 252.008 406.42 231.708ZM453.219 204.546C453.219 189.846 444.005 185.926 435.034 191.107C425.698 196.497 416.847 210.707 416.847 225.547C416.846 240.527 425.575 244.027 435.032 238.567C444.004 233.386 453.218 219.386 453.219 204.546Z" fill="#FF0004"/>
<path d="M353.576 294.978L353.579 196.978L364.006 190.958L364.003 288.958L353.576 294.978Z" fill="#FF0004"/>
<path d="M288.513 313.646C288.513 300.066 297.364 287.956 309.852 280.745C314.095 278.295 318.217 276.615 322.097 275.775L327.31 274.445L327.311 267.585C327.311 257.925 321.491 255.965 312.883 260.935C304.639 265.695 299.062 274.096 297.606 283.476L288.15 285.856C290.454 271.786 299.426 258.485 312.884 250.715C328.524 241.685 337.374 246.374 337.374 262.754L337.372 304.334L327.309 310.145L327.31 299.645C324.399 308.465 316.761 317.635 307.547 322.955C302.212 326.035 297.726 326.806 293.968 325.336C290.331 323.656 288.512 319.806 288.513 313.646ZM327.31 285.365L327.31 283.965L321.975 285.225C317.975 286.135 314.337 287.535 311.306 289.285C303.911 293.555 299.303 299.855 299.303 306.716C299.303 312.876 303.425 314.695 311.063 310.285C320.641 304.755 327.31 295.025 327.31 285.365Z" fill="#FF0004"/>
<path d="M264.542 280.027L274.969 274.007L274.967 340.367L264.54 346.387L264.542 280.027ZM263.936 268.057L263.937 253.917L275.576 247.197L275.575 261.337L263.936 268.057Z" fill="#FF0004"/>
<path d="M216.257 354.526L216.258 318.126L204.861 324.706L204.862 314.486L216.258 307.906L216.259 287.326L226.807 281.236L226.806 301.816L247.417 289.915L247.417 300.135L226.806 312.036L226.805 348.996C226.805 355.296 230.199 356.975 234.685 354.385C239.535 351.585 242.324 346.895 243.294 339.055L252.993 335.975C251.416 348.785 244.869 359.145 235.049 364.815C222.924 371.816 216.256 367.826 216.257 354.526Z" fill="#FF0004"/>
<path d="M148.209 394.656C148.209 381.076 157.06 368.966 169.548 361.755C173.791 359.305 177.914 357.625 181.793 356.785L187.007 355.455L187.007 348.595C187.007 338.935 181.188 336.975 172.58 341.945C164.335 346.706 158.758 355.106 157.303 364.486L147.846 366.866C150.15 352.796 159.122 339.496 172.58 331.725C188.22 322.695 197.07 327.385 197.07 343.765L197.068 385.345L187.005 391.155L187.006 380.655C184.096 389.475 176.457 398.645 167.243 403.965C161.908 407.046 157.423 407.816 153.664 406.346C150.027 404.666 148.209 400.816 148.209 394.656ZM187.006 366.375L187.006 364.975L181.672 366.235C177.671 367.145 174.034 368.545 171.003 370.295C163.607 374.566 159 380.866 158.999 387.726C158.999 393.886 163.121 395.706 170.759 391.295C180.337 385.765 187.006 376.035 187.006 366.375Z" fill="#FF0004"/>
<path d="M81.3769 385.785L91.3187 380.045L91.3183 392.505C95.077 382.355 103.322 371.715 111.93 366.744C127.449 357.784 138.117 365.623 138.117 386.203C138.116 406.783 126.84 427.294 111.2 436.324C102.956 441.085 95.6814 440.945 91.8019 435.765L91.8007 473.845L81.3739 479.865L81.3769 385.785ZM109.503 426.524C118.96 421.064 127.69 407.764 127.69 392.364C127.691 377.104 118.961 373.604 109.505 379.064C100.533 384.245 91.3181 398.665 91.3176 413.365C91.3172 428.065 100.531 431.705 109.503 426.524Z" fill="#FF0004"/>
<path d="M34.3474 392.08C24.7694 397.61 17.8584 406.921 17.8582 415.321C17.8579 424.981 25.9809 425.33 40.0448 420.43C60.0494 413.359 69.021 416.439 69.0206 431.699C69.02 448.499 55.6831 468.379 37.0119 479.16C29.01 483.78 21.6143 485.67 14.9462 484.901C8.27809 484.131 3.42868 479.231 0.519225 470.271L10.825 456.901C14.2192 471.041 23.4333 474.82 37.1335 466.91C49.3789 459.84 57.5023 448.709 57.5026 438.769C57.5029 429.949 52.0472 428.06 36.1647 434.29C16.5237 441.711 6.70346 437.581 6.70396 422.041C6.70442 407.621 18.2227 389.211 35.3177 379.34C49.3817 371.22 61.0206 373.039 65.5061 385.149L55.0791 398.029C52.291 387.88 45.1379 385.85 34.3474 392.08Z" fill="#FF0004"/>
</svg>
