<svg width="819" height="82" viewBox="0 0 819 82" fill="none" xmlns="http://www.w3.org/2000/svg">
<path d="M11.3714 524.658L11.3702 564.978L0.21595 571.418L0.219075 473.418L37.6826 451.787C55.2626 441.636 65.204 448.776 65.2035 464.736C65.203 480.276 54.7758 499.596 37.6808 509.467L11.3714 524.658ZM11.3718 512.478L36.7113 497.847C46.7743 492.037 53.4428 482.166 53.4431 471.526C53.4434 460.886 46.7754 458.717 36.7123 464.527L11.3729 479.158L11.3718 512.478ZM78.0995 460.09L88.5263 454.069L88.526 463.729C91.0723 455.119 96.2858 448.189 103.197 444.199C112.532 438.809 118.958 443.078 118.957 453.158C118.957 455.818 118.715 458.479 118.23 460.999L108.045 466.879C108.288 464.779 108.409 463.029 108.409 461.769C108.409 455.609 104.894 453.859 99.1952 457.149C92.7694 460.859 88.5258 469.189 88.5255 478.149L88.5242 520.429L78.0974 526.45L78.0995 460.09ZM126.915 465.083C126.916 445.483 138.677 423.713 156.014 413.702C173.473 403.622 185.233 411.812 185.232 431.412C185.232 451.012 173.228 472.922 156.012 482.862C138.674 492.873 126.915 484.683 126.915 465.083ZM174.442 437.642C174.442 430.782 172.745 426.022 169.229 423.712C165.834 421.192 161.47 421.472 156.014 424.622C145.345 430.783 137.585 445.063 137.584 458.923C137.584 472.783 145.343 478.103 156.012 471.942C166.803 465.712 174.441 451.642 174.442 437.642ZM194.285 426.605C194.285 406.025 205.319 385.234 220.959 376.204C229.809 371.094 236.841 372.213 240.599 378.303L240.601 334.623L251.149 328.533L251.146 426.533L241.083 432.343L241.083 420.443C237.203 430.663 229.928 440.184 221.199 445.224C205.316 454.394 194.284 446.905 194.285 426.605ZM241.084 399.443C241.084 384.743 231.87 380.824 222.898 386.004C213.563 391.394 204.712 405.604 204.711 420.444C204.711 435.424 213.44 438.924 222.897 433.464C231.869 428.284 241.083 414.283 241.084 399.443ZM306.706 328.094L317.254 322.004L317.252 388.364L306.704 394.454L306.704 383.254C302.824 393.194 296.277 401.875 287.911 406.705C275.302 413.985 267.3 409.785 267.301 393.405L267.302 350.845L277.729 344.825L277.728 384.585C277.727 396.205 282.334 399.285 290.7 394.455C299.793 389.204 306.704 376.674 306.705 363.374L306.706 328.094ZM359.798 354.558C370.952 348.118 376.53 337.477 378.834 323.687L388.169 322.357C384.895 341.047 374.468 356.728 360.04 365.058C341.975 375.489 329.852 368.489 329.852 347.489C329.853 327.609 343.069 305.699 358.709 296.668C372.652 288.618 382.593 291.697 385.381 305.207L375.803 314.097C373.985 304.648 367.923 301.988 358.587 307.378C349.737 312.488 340.037 326.349 340.037 341.609C340.036 356.449 349.614 360.438 359.798 354.558ZM404.787 318.082L404.788 281.682L393.391 288.263L393.391 278.043L404.788 271.462L404.789 250.882L415.337 244.792L415.336 265.372L435.947 253.471L435.947 263.691L415.336 275.592L415.335 312.552C415.334 318.852 418.729 320.532 423.215 317.942C428.065 315.141 430.853 310.451 431.823 302.611L441.523 299.531C439.946 312.341 433.399 322.701 423.578 328.372C411.454 335.372 404.786 331.382 404.787 318.082ZM479.273 262.055C479.273 241.475 490.307 220.684 505.947 211.654C514.798 206.544 521.829 207.663 525.588 213.753L525.589 170.073L536.137 163.983L536.134 261.983L526.071 267.793L526.071 255.893C522.191 266.113 514.917 275.634 506.187 280.674C490.305 289.844 479.272 282.355 479.273 262.055ZM526.072 234.893C526.072 220.193 516.858 216.273 507.886 221.454C498.551 226.844 489.7 241.054 489.7 255.894C489.699 270.874 498.428 274.374 507.885 268.914C516.857 263.733 526.071 249.733 526.072 234.893ZM594.36 204.284L603.453 203.094C599.573 218.774 590.964 231.724 577.749 239.355C560.896 249.085 548.773 242.505 548.773 221.085C548.774 202.045 559.807 180.555 576.175 171.105C583.813 166.694 589.997 165.644 594.725 168.094C599.453 170.404 601.756 175.934 601.756 184.614C601.756 187.554 601.513 190.354 601.028 193.154L559.443 217.165C559.563 231.515 567.565 234.595 577.749 228.715C586.6 223.604 592.056 215.134 594.36 204.284ZM559.443 208.485L591.329 190.074L591.451 188.044C591.451 178.524 584.783 176.774 576.053 181.815C567.203 186.925 560.534 197.355 559.443 208.485ZM611.511 201.101L620.119 190.951C623.392 198.441 628.484 199.421 637.213 194.38C644.852 189.97 649.58 183.32 649.58 177.58C649.581 171.28 646.065 169.81 634.426 174.71C621.21 180.101 614.664 177.581 614.664 167.081C614.664 161.761 616.604 156.301 620.484 150.701C624.485 144.891 629.456 140.341 635.397 136.91C646.187 130.68 652.613 132.29 656.129 139.64L648.005 149.51C646.066 143.91 641.58 143.14 635.396 146.71C629.092 150.351 624.242 156.511 624.242 161.691C624.242 167.431 628.364 167.571 639.639 162.88C653.097 157.21 659.765 159.94 659.765 171C659.764 183.32 649.701 197.81 636.728 205.3C623.755 212.791 614.905 210.481 611.511 201.101ZM672.821 116.702L683.248 110.681L683.246 177.041L672.819 183.062L672.821 116.702ZM672.216 104.732L672.216 90.5917L683.855 83.8713L683.855 98.0113L672.216 104.732ZM699.216 176.5L708.673 166.42C710.977 174.75 716.675 176.219 725.647 171.039C736.801 164.599 742.5 152.769 742.5 137.789L742.5 130.369C739.105 139.749 732.073 148.849 722.495 154.379C707.946 162.78 695.944 156.69 695.944 136.81C695.945 116.09 707.948 95.0197 723.103 86.2692C731.833 81.2289 738.259 81.2987 742.502 86.4086L742.502 76.4686L753.05 70.3782L753.048 130.858C753.048 141.358 750.623 151.158 745.894 160.328C741.165 169.499 734.376 176.639 725.646 181.679C711.704 189.73 702.975 187.91 699.216 176.5ZM742.986 108.809C742.986 95.3686 735.227 89.9088 724.801 95.9291C714.131 102.089 706.372 115.81 706.371 130.93C706.371 144.51 714.13 148.569 724.799 142.409C735.226 136.389 742.986 122.389 742.986 108.809ZM779.742 121.325L769.315 127.346L769.317 60.9857L779.744 54.9654L779.744 65.7454C783.745 55.7352 790.534 47.335 798.658 42.6448C810.903 35.5744 818.905 40.0541 818.904 55.5941L818.903 98.7141L808.355 104.804L808.356 65.3245C808.356 53.7045 803.507 50.4846 795.263 55.2449C786.533 60.2851 779.743 72.1854 779.743 84.9254L779.742 121.325Z" fill="#FF0004"/>
</svg>
