<svg width="482" height="346" viewBox="0 0 482 346" fill="none" xmlns="http://www.w3.org/2000/svg">
<path d="M469.896 6.58012L481.05 0.139759L444.19 115.501L433.036 121.941L447.222 77.4909L425.279 32.3416L436.676 25.7612L452.8 60.1307L469.896 6.58012Z" fill="#FF0004"/>
<path d="M362.332 143.725L371.789 133.645C374.092 141.975 379.79 143.445 388.762 138.265C399.916 131.824 405.615 119.994 405.615 105.014L405.615 97.5941C402.22 106.974 395.188 116.074 385.61 121.605C371.061 130.005 359.059 123.916 359.059 104.036C359.06 83.3155 371.063 62.2452 386.219 53.4947C394.948 48.4544 401.374 48.5242 405.617 53.634L405.617 43.694L416.165 37.6037L416.163 98.0837C416.163 108.584 413.738 118.384 409.009 127.554C404.281 136.724 397.491 143.864 388.762 148.905C374.819 156.955 366.09 155.135 362.332 143.725ZM406.101 76.034C406.102 62.594 398.342 57.1343 387.916 63.1546C377.246 69.315 369.487 83.0352 369.486 98.1552C369.486 111.735 377.245 115.795 387.914 109.635C398.341 103.614 406.101 89.614 406.101 76.034Z" fill="#FF0004"/>
<path d="M341.302 123.109L350.395 121.918C346.515 137.598 337.907 150.549 324.691 158.179C307.839 167.91 295.715 161.33 295.716 139.91C295.716 120.87 306.75 99.3797 323.117 89.9291C330.756 85.5189 336.939 84.4687 341.667 86.9185C346.395 89.2284 348.699 94.7583 348.698 103.438C348.698 106.378 348.456 109.178 347.971 111.978L306.385 135.99C306.506 150.34 314.507 153.419 324.692 147.539C333.542 142.429 338.998 133.959 341.302 123.109ZM306.385 127.31L338.272 108.899L338.393 106.869C338.393 97.3486 331.725 95.5988 322.996 100.639C314.145 105.749 307.477 116.18 306.385 127.31Z" fill="#FF0004"/>
<path d="M253.553 178.114L253.554 141.714L242.157 148.295L242.158 138.075L253.554 131.494L253.555 110.914L264.103 104.824L264.102 125.404L284.713 113.503L284.713 123.723L264.102 135.624L264.101 172.584C264.101 178.884 267.495 180.564 271.981 177.974C276.831 175.174 279.619 170.483 280.59 162.643L290.289 159.563C288.712 172.373 282.165 182.733 272.344 188.404C260.22 195.404 253.552 191.414 253.553 178.114Z" fill="#FF0004"/>
<path d="M185.505 218.244C185.505 204.664 194.356 192.554 206.844 185.344C211.087 182.894 215.21 181.214 219.089 180.373L224.303 179.043L224.303 172.183C224.303 162.523 218.484 160.563 209.875 165.534C201.631 170.294 196.054 178.694 194.599 188.074L185.142 190.454C187.446 176.384 196.418 163.084 209.876 155.314C225.516 146.283 234.366 150.973 234.366 167.353L234.364 208.933L224.301 214.743L224.302 204.243C221.392 213.063 213.753 222.234 204.539 227.554C199.204 230.634 194.718 231.404 190.96 229.934C187.323 228.254 185.505 224.404 185.505 218.244ZM224.302 189.963L224.302 188.563L218.968 189.823C214.967 190.734 211.329 192.134 208.298 193.884C200.903 198.154 196.295 204.454 196.295 211.314C196.295 217.474 200.417 219.294 208.055 214.884C217.633 209.353 224.302 199.623 224.302 189.963Z" fill="#FF0004"/>
<path d="M135.013 199.94L145.439 193.919L145.439 203.579C147.985 194.969 153.199 188.039 160.11 184.049C169.445 178.658 175.871 182.928 175.87 193.008C175.87 195.668 175.628 198.328 175.143 200.848L164.958 206.729C165.201 204.629 165.322 202.879 165.322 201.619C165.323 195.459 161.807 193.709 156.108 196.999C149.683 200.709 145.439 209.039 145.439 217.999L145.437 260.279L135.011 266.3L135.013 199.94Z" fill="#FF0004"/>
<path d="M87.4375 274.028L87.4387 237.628L76.042 244.208L76.0423 233.988L87.439 227.408L87.4397 206.828L97.9877 200.738L97.987 221.318L118.598 209.417L118.598 219.637L97.9867 231.538L97.9855 268.498C97.9853 274.798 101.38 276.477 105.866 273.887C110.716 271.087 113.504 266.397 114.474 258.557L124.174 255.477C122.597 268.287 116.05 278.647 106.229 284.317C94.1051 291.318 87.4371 287.328 87.4375 274.028Z" fill="#FF0004"/>
<path d="M34.3474 237.203C24.7694 242.733 17.8584 252.043 17.8582 260.443C17.8579 270.103 25.9809 270.453 40.0448 265.553C60.0494 258.482 69.021 261.562 69.0206 276.822C69.02 293.622 55.6831 313.502 37.0119 324.283C29.01 328.903 21.6143 330.793 14.9462 330.024C8.27809 329.254 3.42868 324.354 0.519225 315.394L10.825 302.024C14.2192 316.164 23.4333 319.943 37.1335 312.033C49.3789 304.962 57.5023 293.832 57.5026 283.892C57.5029 275.072 52.0472 273.182 36.1647 279.413C16.5237 286.833 6.70346 282.704 6.70396 267.164C6.70442 252.744 18.2227 234.333 35.3177 224.463C49.3817 216.342 61.0206 218.162 65.5061 230.272L55.0791 243.152C52.291 233.002 45.1379 230.973 34.3474 237.203Z" fill="#FF0004"/>
</svg>
